<?xml version="1.0" encoding="utf-8"?>
<!-- Generator: Adobe Illustrator 16.0.4, SVG Export Plug-In . SVG Version: 6.00 Build 0)  -->
<!DOCTYPE svg PUBLIC "-//W3C//DTD SVG 1.1//EN" "http://www.w3.org/Graphics/SVG/1.1/DTD/svg11.dtd">
<svg version="1.1" id="Layer_1" xmlns="http://www.w3.org/2000/svg" xmlns:xlink="http://www.w3.org/1999/xlink" x="0px" y="0px"
	 width="232px" height="50px" viewBox="0 0 232 50" enable-background="new 0 0 232 50" xml:space="preserve">
<g>
	<path fill="#7D9EA2" d="M231.331,33.691l0.467,4.584h-6.026l-0.296-1.996l-0.252-0.043c-1.275,1.994-3.267,2.674-5.473,2.674
		c-6.489,0-8.145-5.219-8.145-10.52c0-7.464,3.777-12.472,11.496-12.472c1.524,0,4.794,0.383,8.229,1.697V33.691z M224.287,21.224
		c-0.463-0.171-1.185-0.297-1.95-0.297c-2.754,0-3.689,3.307-3.689,6.958c0,3.262,0.597,5.975,3.055,5.975
		c1.655,0,2.585-1.184,2.585-2.414V21.224z"/>
	<g>
		<path fill="none" d="M46.612,42.516c0,1.057,0.551,2.035,1.909,2.035c1.954,0,2.503-1.867,2.503-4.664v-3.607
			C48.818,37.594,46.612,39.461,46.612,42.516z"/>
		<path fill="#E3383E" d="M51.024,36.279v3.607c0,2.797-0.549,4.664-2.503,4.664c-1.358,0-1.909-0.979-1.909-2.035
			C46.612,39.461,48.818,37.594,51.024,36.279l5.306-6.994l-1.005,0.625c0,0,1.113-2.201,2.657-4.787v-8.566h-7.127v13.105
			c0,1.783-1.018,2.84-2.416,2.84c-2.036,0-2.165-1.439-2.165-3.73V16.557h-7.126v3.687c0.162,0.566,0.265,1.202,0.261,1.938
			l1.299-0.37l-0.54,4.683l-1.02,0.32v2.934c0,3.52,1.695,6.068,5.301,6.744c-2.671,1.951-4.197,4.326-4.197,7.211
			c0,3.604,2.543,5.852,7.38,5.852c6.236,0,9.585-3.348,10.22-10.135c0.131-1.273,0.131-4.75,0.131-5.939v-3.252
			c-0.404,0.588-0.805,1.086-1.142,1.406C55.361,33.039,51.024,36.279,51.024,36.279z"/>
		<path fill="#E3383E" d="M77.56,31.934c0.001-0.084,0.021-0.152,0.021-0.236c0-4.492-3.52-5.85-6.661-6.869
			c-1.739-0.552-2.928-1.105-2.928-2.333c0-1.018,0.766-1.529,1.952-1.529c1.314,0,3.054,0.764,4.922,2.208L78.09,19.1
			c-2.08-1.907-5.135-3.181-8.526-3.181c-2.061,0-3.905,0.5-5.361,1.413c0.048,0.188,0.366,1.75-1.577,4.037
			c-0.52,0.611-1.033,1.459-1.488,2.324c0.3,4.064,3.454,5.3,6.646,6.31c1.524,0.465,2.755,0.891,2.755,2.162
			c0,1.189-0.764,1.613-2.036,1.613c-1.907,0-4.75-1.189-6.318-2.207l-1.826,5.006c1.316,0.936,4.623,2.377,8.568,2.377
			c1.534,0,2.889-0.242,4.074-0.668l-4.782-4.518C68.219,33.768,73.908,34.543,77.56,31.934z"/>
		<path fill="#E3383E" d="M10.56,33.814l-0.072-0.166C10.488,33.648,10.513,33.709,10.56,33.814z"/>
		<path fill="#E3383E" d="M20.773,33.602c-2.134,0-3.439-1.924-3.894-2.734l-1.576-3.029c2.247-1.271,4.496-3.646,4.496-6.829
			c0-3.562-2.461-5.09-5.174-5.09c-3.525,0-5.728,2.122-7.085,5.007c-0.083,0-0.126,0-0.169,0V1.331H0.203v36.944h7.168v-9.166
			c0.297-0.041,0.806-0.082,1.061-0.168l2.056,4.707l0.072,0.166c0.386,0.826,2.411,4.543,7.74,4.543c0.849,0,1.565-0.232,2.162-0.6
			c1.612-0.984,2.345-2.957,2.352-4.135v-5.84C22.796,29.803,22.591,33.602,20.773,33.602z M7.458,26.312
			c0.25-2.631,1.823-5.304,3.73-5.304c0.977,0,1.527,0.554,1.527,1.571C12.715,24.446,10.254,26.096,7.458,26.312z"/>
		<path fill="#E3383E" d="M33.524,15.921l-0.001,0.003c0.014-0.001,0.028-0.001,0.041-0.001
			C33.54,15.922,33.524,15.921,33.524,15.921z"/>
		<path fill="#E3383E" d="M22.814,26.814v0.969C22.818,27.373,22.814,27.029,22.814,26.814z"/>
		<path fill="#E3383E" d="M37.094,17.226c-1.48-1.198-3.26-1.297-3.531-1.303c-0.013,0-0.026,0-0.041,0.001
			c-1.788,0.051-3.827,1.044-4.94,3.645l-0.552-3.011h-5.77l0.554,4.156v6.101l1.173,6.461c0,0-1.173-1.279-1.171,0.326
			c0,0.006-0.001,0.016-0.001,0.021v4.652h7.081V24.997c0.028-1.211,0.512-2.11,1.311-2.619c0.019-0.011,0.038-0.022,0.058-0.036
			c0.038-0.02,0.078-0.042,0.125-0.067c0.134-0.071,0.271-0.134,0.417-0.183c0.516-0.193,1.3-0.361,2.343-0.24
			c0,0,0.905,0.087,1.946,0.534c1.405,0.597,3.054,1.849,3.054,4.429v-6.571C38.736,18.812,37.896,17.872,37.094,17.226z"/>
		<path fill="#E3383E" d="M40.708,21.812l-1.299,0.37c0.004-0.736-0.099-1.372-0.261-1.938v6.571l1.02-0.32L40.708,21.812z"/>
		<path fill="#E3383E" d="M23.987,33.275l-1.173-6.461c0,0.215,0.004,0.559,0,0.969v5.84c0-0.006,0.001-0.016,0.001-0.021
			C22.814,31.996,23.987,33.275,23.987,33.275z"/>
		<path fill="#E3383E" d="M63.517,17.778c-1.81,1.479-3.911,4.625-5.535,7.345v5.105c0.552-0.801,1.111-1.793,1.535-2.928
			c0,0,0.689-1.838,1.622-3.609c-0.016-0.205-0.058-0.384-0.058-0.605C61.081,20.768,62.005,18.985,63.517,17.778z"/>
		<path fill="#E3383E" d="M64.195,17.294c-0.185,0.109-0.376,0.253-0.568,0.404c0.178-0.137,0.383-0.246,0.576-0.367
			C64.2,17.319,64.195,17.294,64.195,17.294z"/>
		<path fill="#E3383E" d="M55.325,29.91l1.005-0.625l-5.306,6.994c0,0,4.337-3.24,5.816-4.645c0.337-0.32,0.738-0.818,1.142-1.406
			v-5.105C56.438,27.709,55.325,29.91,55.325,29.91z"/>
		<path fill="#E3383E" d="M64.203,17.332c-0.193,0.122-0.398,0.23-0.576,0.367c-0.038,0.029-0.072,0.048-0.11,0.079
			c-1.511,1.208-2.436,2.99-2.436,5.309c0,0.222,0.042,0.4,0.058,0.605c0.455-0.865,0.968-1.712,1.488-2.324
			C64.569,19.082,64.251,17.52,64.203,17.332z"/>
		<path fill="#E3383E" d="M80.556,25.539c0,3.184-1.273,5.162-2.996,6.395c-0.083,3.215-1.787,5.35-4.56,6.352l0.021,0.018
			c0,0,6.578-2.086,7.549-6.678c-0.009-0.371-0.014-0.742-0.014-1.115V25.539z"/>
		<path fill="#E3383E" d="M77.56,31.934c-3.652,2.609-9.341,1.834-9.341,1.834L73,38.285C75.773,37.283,77.478,35.148,77.56,31.934z
			"/>
		<path fill="#E3383E" d="M92.559,32.928c-0.719,0.385-1.484,0.678-2.293,0.678c-1.439,0-2.545-0.592-2.545-2.926v-8.566h5.304
			v-5.556h-5.304V8.792h-7.165v16.748l1.687,0.619v3.385L80.68,31.01c-0.02,0.213-0.067,0.412-0.11,0.615
			c0.094,3.832,0.917,7.328,7.492,7.328c2.375,0,4.708-0.723,6.024-1.57c0,0,1.607-1.049,2.336-3.775v-6.793
			C96.422,30.684,92.559,32.928,92.559,32.928z"/>
		<path fill="#E3383E" d="M82.242,29.543v-3.385l-1.687-0.619v4.971c0,0.373,0.005,0.744,0.014,1.115
			c0.043-0.203,0.09-0.402,0.11-0.615L82.242,29.543z"/>
		<path fill="#E3383E" d="M103.547,29.66v-0.826C103.547,28.834,103.531,29.17,103.547,29.66z"/>
		<path fill="#E3383E" d="M99.984,13.881c2.25,0,3.775-1.484,3.775-3.519c0-1.951-1.526-3.522-3.775-3.522
			c-2.333,0-3.773,1.571-3.773,3.522C96.211,12.397,97.651,13.881,99.984,13.881z"/>
		<path fill="#E3383E" d="M96.422,34.398v-0.607C96.412,33.93,96.404,34.143,96.422,34.398z"/>
		<path fill="#E3383E" d="M105.641,33.602c-1.727,0-2.044-2.576-2.094-3.941c-0.016-0.49,0-0.826,0-0.826V16.557h-7.125v10.257
			l0.526,0.734c0.103-0.266,0.214,0.301,0.214,0.301l-0.214-0.301c-0.084,0.227-0.165,1.033-0.165,3.254
			c0,1.096-0.148,2.01-0.361,2.805v0.184v0.607c0.089,1.291,0.82,3.721,5.009,3.877c0.302,0.008,0.616,0.01,0.955,0
			c0.386,0,0.778,0,1.161-0.025c1.703-0.102,3.308-0.666,4.205-3.785v-5.68C107.707,30.99,107.398,33.602,105.641,33.602z"/>
		<path fill="#E3383E" d="M96.948,27.549l-0.526-0.734v6.793c0.212-0.795,0.361-1.709,0.361-2.805
			C96.783,28.582,96.864,27.775,96.948,27.549z"/>
		<path fill="#E3383E" d="M96.948,27.549l0.214,0.301C97.163,27.85,97.051,27.283,96.948,27.549z"/>
		<path fill="#E3383E" d="M126.54,28.723v-0.898C126.54,27.824,126.527,28.182,126.54,28.723z"/>
		<path fill="#E3383E" d="M119.416,33.863v-0.262C119.416,33.602,119.409,33.699,119.416,33.863z"/>
		<path fill="#E3383E" d="M136.309,16.674h0.003c0.657-0.262,1.363-0.459,2.113-0.587C137.155,16.274,136.309,16.674,136.309,16.674
			z"/>
		<path fill="#E3383E" d="M107.751,26.814v1.971C107.766,28.045,107.751,27.35,107.751,26.814z"/>
		<path fill="#E3383E" d="M128.366,33.545c-1.521-0.043-1.786-3.225-1.826-4.822c-0.013-0.541,0-0.898,0-0.898v-4.396
			c0-5.176-2.629-7.509-6.788-7.509c-2.84,0-4.834,1.146-6.19,2.971l-0.426-2.333h-5.893l0.509,4.369v5.888l1.252,2.789
			c-0.182,0.092-0.473,0.842-0.915,3.371c-0.097,0.551-0.21,1.047-0.337,1.49v3.811h7.037V24.532c0-1.826,1.019-3.184,2.76-3.184
			c1.652,0,1.867,1.358,1.867,3.311v8.943v0.262c0.031,0.979,0.451,4.412,4.822,4.412c0.184,0,1.123-0.08,2.302-0.496
			c1.278-0.451,3.085-1.133,5.24-2.104c-0.625-0.779-1.108-1.682-1.462-2.688C129.461,33.352,128.768,33.555,128.366,33.545z"/>
		<path fill="#E3383E" d="M136.767,30.17c0.082,0.914,0.462,1.746,1.112,2.369c1.426-0.826,2.916-1.744,4.472-2.805l0.239-0.631
			C140.624,29.801,138.462,30.066,136.767,30.17z"/>
		<path fill="#E3383E" d="M109.003,29.604l-1.252-2.789c0,0.535,0.015,1.23,0,1.971v5.68c0.127-0.443,0.24-0.939,0.337-1.49
			C108.531,30.445,108.822,29.695,109.003,29.604z"/>
		<path fill="#E3383E" d="M136.828,29.016c0.01,0.031,0.016,0.059,0.025,0.088c1.643-1.303,3.065-2.846,3.965-4.23
			C139.889,26.316,138.431,27.746,136.828,29.016z"/>
		<path fill="#E3383E" d="M140.853,24.821c0.406-0.631,0.711-1.231,0.857-1.754c-0.045,0.104-0.089,0.203-0.134,0.326
			C141.401,23.866,141.156,24.346,140.853,24.821z"/>
		<path fill="#E3383E" d="M142.348,29.744c0.019-0.012,0.034-0.029,0.053-0.041c-0.016,0.01-0.031,0.023-0.05,0.031L142.348,29.744z
			"/>
		<path fill="#E3383E" d="M136.309,25.93c0,0-0.111-4.319,3.221-5.168c0.218-0.034,1.701-0.353,2.236,1.137
			c0.112,0.313,0.07,0.72-0.056,1.168c1.052-2.489,1.829,0.026,2.277,2.357l-1.397,3.68l-0.239,0.631
			c0.019-0.008,0.034-0.021,0.05-0.031c0.423-0.312,0.809-0.643,1.157-0.988c0.296-0.291,0.557-0.594,0.803-0.896
			c2.616-3.234,2.781-7.024,1.773-8.505c-2.29-3.395-5.678-3.526-7.709-3.227c-0.75,0.128-1.456,0.325-2.113,0.587
			c-4.495,1.787-6.757,6.496-6.757,11.336c0,1.842,0.249,3.516,0.764,4.979c1.778-0.748,4.281-2.205,6.51-3.973
			C136.312,27.326,136.309,25.93,136.309,25.93z"/>
		<path fill="#E3383E" d="M146.227,31.867c-1.359,0.893-3.226,1.785-5.261,1.785c-1.35,0-2.38-0.434-3.087-1.113
			c-2.247,1.301-4.297,2.326-6.099,3.137c1.655,2.061,4.297,3.277,8.165,3.277c4.754,0,7.934-2.207,8.146-2.418L146.227,31.867z"/>
		<path fill="#E3383E" d="M136.767,30.17c1.695-0.104,3.857-0.369,5.823-1.066l1.397-3.68c-0.448-2.331-1.226-4.846-2.277-2.357
			c-0.146,0.522-0.451,1.123-0.857,1.754c-0.011,0.018-0.021,0.035-0.034,0.053c-0.899,1.384-2.322,2.927-3.965,4.23
			c-0.01-0.029-0.016-0.057-0.025-0.088c-2.229,1.768-4.731,3.225-6.51,3.973c0.354,1.006,0.837,1.908,1.462,2.688
			c1.802-0.811,3.852-1.836,6.099-3.137C137.229,31.916,136.849,31.084,136.767,30.17z"/>
		<path fill="#E3383E" d="M140.853,24.821c-0.011,0.018-0.021,0.035-0.034,0.053C140.831,24.856,140.842,24.838,140.853,24.821z"/>
	</g>
	<path fill="#7D9EA2" d="M179.777,22.844l-1.304-1.446c0,6.528-4.67,10.217-4.67,10.217c-1.739,1.229-2.968,1.697-4.455,1.697
		c-2.841,0-4.243-2.166-4.243-5.941c0-3.773,1.315-5.852,3.649-5.852c1.567,0,2.672,1.103,3.689,2.501l4.327-3.692
		c-2.165-3.39-5.258-4.409-8.312-4.409c-5.09,0-10.479,3.351-10.479,11.751c0,7.379,3.988,11.24,10.351,11.24
		c3.351,0,6.023-0.977,7.974-2.504c0,0,2.573-1.957,2.461-7.875C178.663,23.117,179.777,22.844,179.777,22.844z"/>
	<path fill="#7D9EA2" d="M197.265,28.588v-1.773C197.265,26.814,197.224,27.576,197.265,28.588z"/>
	<path fill="#7D9EA2" d="M190.181,34.225v-0.623C190.181,33.602,190.149,33.848,190.181,34.225z"/>
	<path fill="#7D9EA2" d="M201.468,26.814c0,1.65,0.479,6.787-2.044,6.787c-1.681,0-2.082-3.002-2.159-5.014
		c-0.041-1.012,0-1.773,0-1.773v-3.261c0-5.131-2.418-7.634-6.873-7.634c-1.95,0-3.605,0.722-4.837,1.825V8.792h-7.081v29.484h7.081
		V24.36c0-1.697,0.933-3.012,2.672-3.012c1.571,0,1.954,1.232,1.954,3.143v9.111v0.623c0.105,1.271,0.934,4.051,6.147,4.051
		c0.333,0,0.641-0.023,0.937-0.059c3.758-0.412,4.716-3.279,4.716-4.615c0-1.438,1.348-1.471,1.348-1.471L201.468,26.814z"/>
	<path fill="#7D9EA2" d="M208.592,27.92v-1.105C208.592,26.814,208.579,27.262,208.592,27.92z"/>
	<path fill="#7D9EA2" d="M205.029,13.881c2.247,0,3.774-1.484,3.774-3.519c0-1.951-1.527-3.522-3.774-3.522
		c-2.333,0-3.776,1.571-3.776,3.522C201.253,12.397,202.696,13.881,205.029,13.881z"/>
	<path fill="#7D9EA2" d="M212.761,22.092c-2.141,4.83-0.74,11.51-2.268,11.51c-1.578,0-1.86-3.76-1.901-5.682
		c-0.013-0.658,0-1.105,0-1.105V16.557h-7.124v17.082v1.086c0.184,1.393,1.179,3.551,5.628,3.551c0.554,0,1.048-0.047,1.496-0.129
		c4.054-0.75,3.93-4.611,4.02-5.311c0.103-0.771,0.37-6.426,0.37-6.426L212.761,22.092z"/>
</g>
</svg>
